<?xml version="1.0" standalone="no"?>
<!DOCTYPE svg PUBLIC "-//W3C//DTD SVG 20010904//EN"
 "http://www.w3.org/TR/2001/REC-SVG-20010904/DTD/svg10.dtd">
<svg version="1.0" xmlns="http://www.w3.org/2000/svg"
 width="512.000000pt" height="512.000000pt" viewBox="0 0 512.000000 512.000000"
 preserveAspectRatio="xMidYMid meet">

<g transform="translate(0.000000,512.000000) scale(0.100000,-0.100000)"
fill="#000000" stroke="none">
<path d="M2355 5110 c-793 -70 -1489 -481 -1927 -1139 -218 -329 -357 -709
-409 -1116 -16 -129 -16 -461 0 -590 39 -304 117 -567 251 -840 315 -642 895
-1124 1591 -1324 124 -36 267 -65 404 -82 129 -16 461 -16 590 0 407 52 787
191 1116 409 631 420 1033 1074 1130 1837 16 129 16 461 0 590 -61 481 -250
934 -541 1300 -413 519 -1035 864 -1700 945 -123 15 -389 20 -505 10z m-36
-1467 c25 -26 33 -56 105 -423 42 -217 91 -468 109 -558 17 -89 35 -161 39
-160 4 2 179 253 389 558 209 305 392 566 405 580 24 25 25 25 237 28 204 3
214 2 240 -18 18 -14 27 -31 27 -50 0 -43 -468 -2082 -484 -2110 -21 -37 -68
-49 -191 -49 -134 0 -176 12 -187 54 -6 23 29 195 150 728 87 383 153 692 146
685 -7 -7 -193 -267 -414 -578 -221 -311 -412 -576 -425 -589 -32 -33 -114
-36 -145 -6 -16 16 -45 140 -145 615 -69 327 -127 596 -129 597 -2 2 -6 -10
-9 -26 -22 -108 -391 -1421 -406 -1441 -25 -34 -68 -42 -207 -38 -139 3 -164
15 -164 74 0 18 126 498 281 1066 261 963 282 1035 310 1061 l29 27 206 0 206
0 27 -27z"/>
</g>
</svg>
